<svg width="120" height="120" viewBox="0 0 120 120" fill="none" xmlns="http://www.w3.org/2000/svg">
  <!-- Gradient Definitions -->
  <defs>
    <linearGradient id="logoGradient" x1="0%" y1="0%" x2="100%" y2="100%">
      <stop offset="0%" style="stop-color:#9333ea;stop-opacity:1" />
      <stop offset="50%" style="stop-color:#3b82f6;stop-opacity:1" />
      <stop offset="100%" style="stop-color:#6366f1;stop-opacity:1" />
    </linearGradient>
    <linearGradient id="accentGradient" x1="0%" y1="0%" x2="100%" y2="100%">
      <stop offset="0%" style="stop-color:#a855f7;stop-opacity:1" />
      <stop offset="100%" style="stop-color:#60a5fa;stop-opacity:1" />
    </linearGradient>
  </defs>

  <!-- Background Circle -->
  <circle cx="60" cy="60" r="58" fill="url(#logoGradient)" opacity="0.1"/>

  <!-- Main Chat Bubble -->
  <path d="M 30 45 Q 30 30 45 30 L 85 30 Q 100 30 100 45 L 100 65 Q 100 80 85 80 L 50 80 L 35 95 L 35 80 Q 30 80 30 65 Z"
        fill="url(#logoGradient)"
        stroke="url(#accentGradient)"
        stroke-width="2"/>

  <!-- Language Symbol - "L" -->
  <text x="50" y="63" font-family="system-ui, -apple-system, sans-serif" font-size="28" font-weight="bold" fill="white">L</text>

  <!-- Sparkle/AI indicator -->
  <circle cx="82" cy="38" r="4" fill="#fbbf24" opacity="0.9"/>
  <circle cx="78" cy="42" r="2.5" fill="#fbbf24" opacity="0.7"/>
  <circle cx="86" cy="42" r="2.5" fill="#fbbf24" opacity="0.7"/>

  <!-- Small accent dots -->
  <circle cx="45" cy="55" r="2" fill="white" opacity="0.6"/>
  <circle cx="53" cy="55" r="2" fill="white" opacity="0.6"/>
  <circle cx="61" cy="55" r="2" fill="white" opacity="0.6"/>
</svg>
